<svg width="440" height="160" viewBox="0 0 440 160" fill="none" xmlns="http://www.w3.org/2000/svg">
<rect width="440" height="160" fill="white"/>
<g clip-path="url(#clip0_90_358)">
<mask id="mask0_90_358" style="mask-type:luminance" maskUnits="userSpaceOnUse" x="150" y="52" width="56" height="56">
<path d="M206 52H150V108H206V52Z" fill="white"/>
</mask>
<g mask="url(#mask0_90_358)">
<path d="M206 80C206 64.536 193.464 52 178 52C162.536 52 150 64.536 150 80C150 95.464 162.536 108 178 108C193.464 108 206 95.464 206 80Z" fill="#0098EA"/>
<path d="M195.92 80C195.92 70.1031 187.897 62.08 178 62.08C168.103 62.08 160.08 70.1031 160.08 80C160.08 89.8969 168.103 97.92 178 97.92C187.897 97.92 195.92 89.8969 195.92 80Z" fill="white" fill-opacity="0.4"/>
<path opacity="0.48" d="M191.44 80C191.44 72.5773 185.423 66.56 178 66.56C170.577 66.56 164.56 72.5773 164.56 80C164.56 87.4227 170.577 93.44 178 93.44C185.423 93.44 191.44 87.4227 191.44 80Z" fill="white"/>
<path d="M186.96 80C186.96 75.0515 182.949 71.04 178 71.04C173.052 71.04 169.04 75.0515 169.04 80C169.04 84.9485 173.052 88.96 178 88.96C182.949 88.96 186.96 84.9485 186.96 80Z" fill="white"/>
</g>
</g>
<path d="M220.023 91.5V68.2273H229.205C230.962 68.2273 232.462 68.5417 233.705 69.1705C234.955 69.7917 235.905 70.6742 236.557 71.8182C237.216 72.9545 237.545 74.2917 237.545 75.8295C237.545 77.375 237.212 78.7045 236.545 79.8182C235.879 80.9242 234.913 81.7727 233.648 82.3636C232.39 82.9545 230.867 83.25 229.08 83.25H222.932V79.2955H228.284C229.223 79.2955 230.004 79.1667 230.625 78.9091C231.246 78.6515 231.708 78.2652 232.011 77.75C232.322 77.2348 232.477 76.5947 232.477 75.8295C232.477 75.0568 232.322 74.4053 232.011 73.875C231.708 73.3447 231.242 72.9432 230.614 72.6705C229.992 72.3902 229.208 72.25 228.261 72.25H224.943V91.5H220.023ZM232.591 80.9091L238.375 91.5H232.943L227.284 80.9091H232.591ZM240.932 91.5V74.0455H245.773V91.5H240.932ZM243.364 71.7955C242.644 71.7955 242.027 71.5568 241.511 71.0795C241.004 70.5947 240.75 70.0152 240.75 69.3409C240.75 68.6742 241.004 68.1023 241.511 67.625C242.027 67.1402 242.644 66.8977 243.364 66.8977C244.083 66.8977 244.697 67.1402 245.205 67.625C245.72 68.1023 245.977 68.6742 245.977 69.3409C245.977 70.0152 245.72 70.5947 245.205 71.0795C244.697 71.5568 244.083 71.7955 243.364 71.7955ZM259.037 74.0455V77.6818H248.264V74.0455H259.037ZM250.73 91.5V72.7841C250.73 71.5189 250.976 70.4697 251.469 69.6364C251.969 68.803 252.651 68.178 253.514 67.7614C254.378 67.3447 255.359 67.1364 256.457 67.1364C257.2 67.1364 257.878 67.1932 258.491 67.3068C259.113 67.4205 259.575 67.5227 259.878 67.6136L259.014 71.25C258.825 71.1894 258.59 71.1326 258.31 71.0795C258.037 71.0265 257.757 71 257.469 71C256.757 71 256.26 71.1667 255.98 71.5C255.7 71.8258 255.56 72.2841 255.56 72.875V91.5H250.73ZM271.278 74.0455V77.6818H260.767V74.0455H271.278ZM263.153 69.8636H267.994V86.1364C267.994 86.5833 268.063 86.9318 268.199 87.1818C268.335 87.4242 268.525 87.5947 268.767 87.6932C269.017 87.7917 269.305 87.8409 269.631 87.8409C269.858 87.8409 270.085 87.822 270.312 87.7841C270.54 87.7386 270.714 87.7045 270.835 87.6818L271.597 91.2841C271.354 91.3598 271.013 91.447 270.574 91.5455C270.134 91.6515 269.6 91.7159 268.972 91.7386C267.805 91.7841 266.782 91.6288 265.903 91.2727C265.032 90.9167 264.354 90.3636 263.869 89.6136C263.384 88.8636 263.146 87.9167 263.153 86.7727V69.8636ZM288.736 79.0227L284.304 79.2955C284.228 78.9167 284.065 78.5758 283.815 78.2727C283.565 77.9621 283.236 77.7159 282.827 77.5341C282.425 77.3447 281.944 77.25 281.384 77.25C280.634 77.25 280.001 77.4091 279.486 77.7273C278.971 78.0379 278.713 78.4545 278.713 78.9773C278.713 79.3939 278.88 79.7462 279.213 80.0341C279.546 80.322 280.118 80.553 280.929 80.7273L284.088 81.3636C285.785 81.7121 287.05 82.2727 287.884 83.0455C288.717 83.8182 289.134 84.8333 289.134 86.0909C289.134 87.2348 288.796 88.2386 288.122 89.1023C287.455 89.9659 286.539 90.6402 285.372 91.125C284.213 91.6023 282.876 91.8409 281.361 91.8409C279.05 91.8409 277.209 91.3598 275.838 90.3977C274.474 89.428 273.675 88.1098 273.44 86.4432L278.202 86.1932C278.346 86.8977 278.694 87.4356 279.247 87.8068C279.8 88.1705 280.509 88.3523 281.372 88.3523C282.221 88.3523 282.902 88.1894 283.418 87.8636C283.94 87.5303 284.205 87.1023 284.213 86.5795C284.205 86.1402 284.02 85.7803 283.656 85.5C283.293 85.2121 282.732 84.9924 281.974 84.8409L278.952 84.2386C277.247 83.8977 275.978 83.3068 275.145 82.4659C274.319 81.625 273.906 80.553 273.906 79.25C273.906 78.1288 274.209 77.1629 274.815 76.3523C275.429 75.5417 276.289 74.9167 277.395 74.4773C278.509 74.0379 279.812 73.8182 281.304 73.8182C283.509 73.8182 285.243 74.2841 286.509 75.2159C287.781 76.1477 288.524 77.4167 288.736 79.0227Z" fill="black"/>
<defs>
<clipPath id="clip0_90_358">
<rect width="56" height="56" fill="white" transform="translate(150 52)"/>
</clipPath>
</defs>
</svg>
