<svg width="664" height="576" viewBox="0 0 664 576" fill="none" xmlns="http://www.w3.org/2000/svg">
<mask id="mask0_117_247" style="mask-type:luminance" maskUnits="userSpaceOnUse" x="117" y="0" width="403" height="403">
<path d="M519 0H117V402H519V0Z" fill="white"/>
</mask>
<g mask="url(#mask0_117_247)">
<path d="M519 201C519 89.9906 429.01 0 318 0C206.991 0 117 89.9906 117 201C117 312.01 206.991 402 318 402C429.01 402 519 312.01 519 201Z" fill="url(#paint0_linear_117_247)"/>
<path d="M318 93.3215H313.281C284.613 93.3215 267.514 125.271 283.416 149.124L352.584 252.876C368.486 276.729 351.387 308.679 322.719 308.679H318M318 93.3215H322.719C351.387 93.3215 368.486 125.271 352.584 149.124L318 201L283.416 252.876C267.514 276.729 284.613 308.679 313.281 308.679H318M318 93.3215V308.679" stroke="white" stroke-width="21.61"/>
</g>
<path d="M100 50C100 22.3858 77.6142 0 50 0C22.3858 0 0 22.3858 0 50C0 77.6142 22.3858 100 50 100C77.6142 100 100 77.6142 100 50Z" fill="url(#paint1_linear_117_247)"/>
<path d="M82 50C82 32.3269 67.6731 18 50 18C32.3269 18 18 32.3269 18 50C18 67.6731 32.3269 82 50 82C67.6731 82 82 67.6731 82 50Z" fill="white" fill-opacity="0.4"/>
<path opacity="0.48" d="M74 50C74 36.7452 63.2548 26 50 26C36.7452 26 26 36.7452 26 50C26 63.2548 36.7452 74 50 74C63.2548 74 74 63.2548 74 50Z" fill="white"/>
<path d="M66 50C66 41.1634 58.8366 34 50 34C41.1634 34 34 41.1634 34 50C34 58.8366 41.1634 66 50 66C58.8366 66 66 58.8366 66 50Z" fill="white"/>
<path d="M664 83.5C664 51.7436 638.256 26 606.5 26C574.744 26 549 51.7436 549 83.5C549 115.256 574.744 141 606.5 141C638.256 141 664 115.256 664 83.5Z" fill="url(#paint2_linear_117_247)"/>
<path d="M606.349 72.143C606.442 72.0967 606.488 72.0957 606.5 72.0957C606.512 72.0957 606.558 72.0967 606.651 72.143C606.751 72.1929 606.907 72.2968 607.106 72.5025C607.516 72.9268 607.986 73.6604 608.426 74.7603C608.86 75.8447 609.222 77.1787 609.473 78.6945C609.621 79.5895 609.727 80.5271 609.789 81.4874H603.211C603.273 80.5271 603.379 79.5895 603.527 78.6945C603.778 77.1787 604.14 75.8447 604.574 74.7603C605.014 73.6603 605.484 72.9268 605.894 72.5025C606.093 72.2968 606.249 72.1929 606.349 72.143Z" fill="white"/>
<path d="M599.178 81.4874C599.245 80.3095 599.372 79.1503 599.556 78.0366C599.816 76.4726 600.189 75.0021 600.67 73.6986C599.858 74.1816 599.107 74.7648 598.436 75.436C597.377 76.4949 596.537 77.7521 595.964 79.1358C595.65 79.8943 595.419 80.683 595.275 81.4874H599.178Z" fill="white"/>
<path d="M595.275 85.5125H599.178C599.245 86.6905 599.372 87.8497 599.556 88.9633C599.816 90.5274 600.189 91.9978 600.67 93.3015C599.858 92.8185 599.107 92.2351 598.436 91.5639C597.377 90.5051 596.537 89.2477 595.964 87.8641C595.65 87.1056 595.419 86.3169 595.275 85.5125Z" fill="white"/>
<path d="M617.725 81.4874C617.581 80.683 617.35 79.8943 617.036 79.1358C616.463 77.7521 615.623 76.4949 614.564 75.436C613.893 74.7648 613.142 74.1816 612.33 73.6986C612.811 75.0021 613.184 76.4726 613.444 78.0366C613.628 79.1503 613.755 80.3095 613.822 81.4874H617.725Z" fill="white"/>
<path d="M613.822 85.5125H617.725C617.581 86.3169 617.35 87.1056 617.036 87.8641C616.463 89.2477 615.623 90.5051 614.564 91.5639C613.893 92.2351 613.142 92.8185 612.33 93.3015C612.811 91.9978 613.184 90.5274 613.444 88.9633C613.628 87.8497 613.755 86.6905 613.822 85.5125Z" fill="white"/>
<path d="M609.789 85.5125C609.727 86.4729 609.621 87.4105 609.473 88.3053C609.222 89.8211 608.86 91.1553 608.426 92.2397C607.986 93.3395 607.516 94.0731 607.106 94.4973C606.907 94.7032 606.751 94.807 606.651 94.857C606.558 94.9034 606.512 94.9042 606.5 94.9042C606.488 94.9042 606.442 94.9034 606.349 94.857C606.249 94.807 606.093 94.7032 605.894 94.4973C605.484 94.0731 605.014 93.3395 604.574 92.2397C604.14 91.1553 603.778 89.8211 603.527 88.3053C603.379 87.4105 603.273 86.4729 603.211 85.5125H609.789Z" fill="white"/>
<path fill-rule="evenodd" clip-rule="evenodd" d="M583.363 64.9379C582.35 66.3812 582.35 70.6712 582.35 79.2516V83.4771C582.35 98.6057 593.725 105.947 600.861 109.065C602.797 109.911 603.765 110.333 606.5 110.333C609.235 110.333 610.203 109.911 612.139 109.065C619.275 105.947 630.65 98.6057 630.65 83.4771V79.2516C630.65 70.6712 630.65 66.3812 629.637 64.9379C628.624 63.4946 624.59 62.1139 616.522 59.3523L614.985 58.8261C610.78 57.3866 608.677 56.6668 606.5 56.6668C604.323 56.6668 602.22 57.3866 598.014 58.8261L596.477 59.3523C588.41 62.1139 584.376 63.4946 583.363 64.9379ZM591.071 83.5001C591.071 81.4739 591.47 79.4676 592.245 77.5956C593.021 75.7237 594.157 74.0228 595.59 72.59C597.023 71.1574 598.724 70.0208 600.596 69.2454C602.467 68.47 604.474 68.071 606.5 68.071C608.526 68.071 610.532 68.47 612.404 69.2454C614.277 70.0208 615.977 71.1574 617.41 72.59C618.843 74.0228 619.979 75.7237 620.755 77.5956C621.53 79.4676 621.929 81.4739 621.929 83.5001C621.929 85.5263 621.53 87.5327 620.755 89.4045C619.979 91.2767 618.843 92.9773 617.41 94.4102C615.977 95.8429 614.277 96.9793 612.404 97.7548C610.532 98.5302 608.526 98.9293 606.5 98.9293C604.474 98.9293 602.467 98.5302 600.596 97.7548C598.724 96.9793 597.023 95.8429 595.59 94.4102C594.157 92.9773 593.021 91.2767 592.245 89.4045C591.47 87.5327 591.071 85.5263 591.071 83.5001Z" fill="white"/>
<path d="M257 484.5C257 433.966 216.034 393 165.5 393C114.966 393 74 433.966 74 484.5C74 535.034 114.966 576 165.5 576C216.034 576 257 535.034 257 484.5Z" fill="url(#paint3_linear_117_247)"/>
<path d="M206.53 491.168L207.509 480.769C208.278 472.603 208.662 468.519 207.265 466.831C206.509 465.918 205.481 465.358 204.382 465.262C202.351 465.084 199.8 467.988 194.699 473.796C192.06 476.799 190.741 478.301 189.269 478.534C188.454 478.662 187.623 478.53 186.87 478.151C185.511 477.467 184.605 475.611 182.793 471.897L173.242 452.325C169.818 445.308 168.105 441.8 165.5 441.8C162.894 441.8 161.182 445.308 157.758 452.325L148.207 471.897C146.395 475.611 145.489 477.467 144.13 478.151C143.377 478.53 142.546 478.662 141.73 478.534C140.259 478.301 138.939 476.799 136.301 473.796C131.199 467.988 128.648 465.084 126.617 465.262C125.518 465.358 124.491 465.918 123.735 466.831C122.338 468.519 122.722 472.603 123.491 480.769L124.47 491.168C126.082 508.302 126.888 516.869 131.938 522.034C136.988 527.2 144.556 527.2 159.693 527.2H171.307C186.443 527.2 194.012 527.2 199.062 522.034C204.111 516.869 204.918 508.302 206.53 491.168Z" fill="white"/>
<defs>
<linearGradient id="paint0_linear_117_247" x1="318" y1="0" x2="318" y2="402" gradientUnits="userSpaceOnUse">
<stop stop-color="#1AC9FF"/>
<stop offset="1" stop-color="#2D83EC"/>
</linearGradient>
<linearGradient id="paint1_linear_117_247" x1="50" y1="0" x2="50" y2="100" gradientUnits="userSpaceOnUse">
<stop stop-color="#1AC9FF"/>
<stop offset="1" stop-color="#2D83EC"/>
</linearGradient>
<linearGradient id="paint2_linear_117_247" x1="606.5" y1="26" x2="606.5" y2="141" gradientUnits="userSpaceOnUse">
<stop stop-color="#1AC9FF"/>
<stop offset="1" stop-color="#2D83EC"/>
</linearGradient>
<linearGradient id="paint3_linear_117_247" x1="165.5" y1="393" x2="165.5" y2="576" gradientUnits="userSpaceOnUse">
<stop stop-color="#1AC9FF"/>
<stop offset="1" stop-color="#2D83EC"/>
</linearGradient>
</defs>
</svg>
