<svg width="440" height="160" viewBox="0 0 440 160" fill="none" xmlns="http://www.w3.org/2000/svg">
<rect width="440" height="160" fill="white"/>
<g clip-path="url(#clip0_89_348)">
<path d="M176 80C176 64.536 163.464 52 148 52C132.536 52 120 64.536 120 80C120 95.464 132.536 108 148 108C163.464 108 176 95.464 176 80Z" fill="#0098EA"/>
<path d="M148 65H147.343C143.349 65 140.967 69.4507 143.182 72.7735L152.818 87.2265C155.033 90.5493 152.651 95 148.657 95H148M148 65H148.657C152.651 65 155.033 69.4507 152.818 72.7735L148 80L143.182 87.2265C140.967 90.5493 143.349 95 147.343 95H148M148 65V95" stroke="white" stroke-width="3"/>
</g>
<path d="M190.023 91.5V68.2273H205.705V72.2841H194.943V77.8295H204.898V81.8864H194.943V87.4432H205.75V91.5H190.023ZM224.048 79.0227L219.616 79.2955C219.541 78.9167 219.378 78.5758 219.128 78.2727C218.878 77.9621 218.548 77.7159 218.139 77.5341C217.738 77.3447 217.257 77.25 216.696 77.25C215.946 77.25 215.313 77.4091 214.798 77.7273C214.283 78.0379 214.026 78.4545 214.026 78.9773C214.026 79.3939 214.192 79.7462 214.526 80.0341C214.859 80.322 215.431 80.553 216.241 80.7273L219.401 81.3636C221.098 81.7121 222.363 82.2727 223.196 83.0455C224.029 83.8182 224.446 84.8333 224.446 86.0909C224.446 87.2348 224.109 88.2386 223.435 89.1023C222.768 89.9659 221.851 90.6402 220.685 91.125C219.526 91.6023 218.188 91.8409 216.673 91.8409C214.363 91.8409 212.522 91.3598 211.151 90.3977C209.787 89.428 208.988 88.1098 208.753 86.4432L213.514 86.1932C213.658 86.8977 214.007 87.4356 214.56 87.8068C215.113 88.1705 215.821 88.3523 216.685 88.3523C217.533 88.3523 218.215 88.1894 218.73 87.8636C219.253 87.5303 219.518 87.1023 219.526 86.5795C219.518 86.1402 219.332 85.7803 218.969 85.5C218.605 85.2121 218.045 84.9924 217.287 84.8409L214.264 84.2386C212.56 83.8977 211.291 83.3068 210.457 82.4659C209.632 81.625 209.219 80.553 209.219 79.25C209.219 78.1288 209.522 77.1629 210.128 76.3523C210.741 75.5417 211.601 74.9167 212.707 74.4773C213.821 74.0379 215.124 73.8182 216.616 73.8182C218.821 73.8182 220.556 74.2841 221.821 75.2159C223.094 76.1477 223.836 77.4167 224.048 79.0227ZM242.017 79.0227L237.585 79.2955C237.509 78.9167 237.347 78.5758 237.097 78.2727C236.847 77.9621 236.517 77.7159 236.108 77.5341C235.706 77.3447 235.225 77.25 234.665 77.25C233.915 77.25 233.282 77.4091 232.767 77.7273C232.252 78.0379 231.994 78.4545 231.994 78.9773C231.994 79.3939 232.161 79.7462 232.494 80.0341C232.828 80.322 233.4 80.553 234.21 80.7273L237.369 81.3636C239.066 81.7121 240.331 82.2727 241.165 83.0455C241.998 83.8182 242.415 84.8333 242.415 86.0909C242.415 87.2348 242.078 88.2386 241.403 89.1023C240.737 89.9659 239.82 90.6402 238.653 91.125C237.494 91.6023 236.157 91.8409 234.642 91.8409C232.331 91.8409 230.491 91.3598 229.119 90.3977C227.756 89.428 226.956 88.1098 226.722 86.4432L231.483 86.1932C231.627 86.8977 231.975 87.4356 232.528 87.8068C233.081 88.1705 233.79 88.3523 234.653 88.3523C235.502 88.3523 236.184 88.1894 236.699 87.8636C237.222 87.5303 237.487 87.1023 237.494 86.5795C237.487 86.1402 237.301 85.7803 236.938 85.5C236.574 85.2121 236.013 84.9924 235.256 84.8409L232.233 84.2386C230.528 83.8977 229.259 83.3068 228.426 82.4659C227.6 81.625 227.188 80.553 227.188 79.25C227.188 78.1288 227.491 77.1629 228.097 76.3523C228.71 75.5417 229.57 74.9167 230.676 74.4773C231.79 74.0379 233.093 73.8182 234.585 73.8182C236.79 73.8182 238.525 74.2841 239.79 75.2159C241.063 76.1477 241.805 77.4167 242.017 79.0227ZM253.418 91.8409C251.622 91.8409 250.077 91.4773 248.781 90.75C247.493 90.0152 246.501 88.9773 245.804 87.6364C245.107 86.2879 244.759 84.6932 244.759 82.8523C244.759 81.0568 245.107 79.4811 245.804 78.125C246.501 76.7689 247.482 75.7121 248.747 74.9545C250.02 74.197 251.512 73.8182 253.224 73.8182C254.376 73.8182 255.448 74.0038 256.44 74.375C257.44 74.7386 258.312 75.2879 259.054 76.0227C259.804 76.7576 260.387 77.6818 260.804 78.7955C261.221 79.9015 261.429 81.197 261.429 82.6818V84.0114H246.69V81.0114H256.872C256.872 80.3144 256.721 79.697 256.418 79.1591C256.115 78.6212 255.694 78.2008 255.156 77.8977C254.626 77.5871 254.009 77.4318 253.304 77.4318C252.569 77.4318 251.918 77.6023 251.349 77.9432C250.789 78.2765 250.349 78.7273 250.031 79.2955C249.713 79.8561 249.55 80.4811 249.543 81.1705V84.0227C249.543 84.8864 249.702 85.6326 250.02 86.2614C250.346 86.8902 250.804 87.375 251.395 87.7159C251.986 88.0568 252.687 88.2273 253.497 88.2273C254.035 88.2273 254.527 88.1515 254.974 88C255.421 87.8485 255.804 87.6212 256.122 87.3182C256.44 87.0152 256.683 86.6439 256.849 86.2045L261.327 86.5C261.099 87.5758 260.634 88.5152 259.929 89.3182C259.232 90.1136 258.33 90.7348 257.224 91.1818C256.126 91.6212 254.857 91.8409 253.418 91.8409ZM269.429 81.4091V91.5H264.588V74.0455H269.202V77.125H269.406C269.793 76.1098 270.44 75.3068 271.349 74.7159C272.259 74.1174 273.361 73.8182 274.656 73.8182C275.868 73.8182 276.925 74.0833 277.827 74.6136C278.728 75.1439 279.429 75.9015 279.929 76.8864C280.429 77.8636 280.679 79.0303 280.679 80.3864V91.5H275.838V81.25C275.846 80.1818 275.573 79.3485 275.02 78.75C274.467 78.1439 273.705 77.8409 272.736 77.8409C272.084 77.8409 271.509 77.9811 271.009 78.2614C270.516 78.5417 270.13 78.9508 269.849 79.4886C269.577 80.0189 269.437 80.6591 269.429 81.4091ZM292.381 91.8409C290.593 91.8409 289.055 91.4621 287.767 90.7045C286.487 89.9394 285.502 88.8788 284.812 87.5227C284.131 86.1667 283.79 84.6061 283.79 82.8409C283.79 81.053 284.134 79.4848 284.824 78.1364C285.521 76.7803 286.509 75.7235 287.79 74.9659C289.07 74.2008 290.593 73.8182 292.358 73.8182C293.881 73.8182 295.214 74.0947 296.358 74.6477C297.502 75.2008 298.407 75.9773 299.074 76.9773C299.741 77.9773 300.108 79.1515 300.176 80.5H295.608C295.479 79.6288 295.138 78.928 294.585 78.3977C294.04 77.8598 293.324 77.5909 292.438 77.5909C291.688 77.5909 291.032 77.7955 290.472 78.2045C289.919 78.6061 289.487 79.1932 289.176 79.9659C288.866 80.7386 288.71 81.6742 288.71 82.7727C288.71 83.8864 288.862 84.8333 289.165 85.6136C289.475 86.3939 289.911 86.9886 290.472 87.3977C291.032 87.8068 291.688 88.0114 292.438 88.0114C292.991 88.0114 293.487 87.8977 293.926 87.6705C294.373 87.4432 294.741 87.1136 295.028 86.6818C295.324 86.2424 295.517 85.7159 295.608 85.1023H300.176C300.1 86.4356 299.737 87.6098 299.085 88.625C298.441 89.6326 297.551 90.4205 296.415 90.9886C295.278 91.5568 293.934 91.8409 292.381 91.8409ZM311.23 91.8409C309.435 91.8409 307.889 91.4773 306.594 90.75C305.306 90.0152 304.313 88.9773 303.616 87.6364C302.92 86.2879 302.571 84.6932 302.571 82.8523C302.571 81.0568 302.92 79.4811 303.616 78.125C304.313 76.7689 305.295 75.7121 306.56 74.9545C307.832 74.197 309.325 73.8182 311.037 73.8182C312.188 73.8182 313.26 74.0038 314.253 74.375C315.253 74.7386 316.124 75.2879 316.866 76.0227C317.616 76.7576 318.2 77.6818 318.616 78.7955C319.033 79.9015 319.241 81.197 319.241 82.6818V84.0114H304.503V81.0114H314.685C314.685 80.3144 314.533 79.697 314.23 79.1591C313.927 78.6212 313.507 78.2008 312.969 77.8977C312.438 77.5871 311.821 77.4318 311.116 77.4318C310.382 77.4318 309.73 77.6023 309.162 77.9432C308.601 78.2765 308.162 78.7273 307.844 79.2955C307.526 79.8561 307.363 80.4811 307.355 81.1705V84.0227C307.355 84.8864 307.514 85.6326 307.832 86.2614C308.158 86.8902 308.616 87.375 309.207 87.7159C309.798 88.0568 310.499 88.2273 311.31 88.2273C311.848 88.2273 312.34 88.1515 312.787 88C313.234 87.8485 313.616 87.6212 313.935 87.3182C314.253 87.0152 314.495 86.6439 314.662 86.2045L319.139 86.5C318.912 87.5758 318.446 88.5152 317.741 89.3182C317.045 90.1136 316.143 90.7348 315.037 91.1818C313.938 91.6212 312.67 91.8409 311.23 91.8409Z" fill="black"/>
<defs>
<clipPath id="clip0_89_348">
<rect width="56" height="56" fill="white" transform="translate(120 52)"/>
</clipPath>
</defs>
</svg>
