<svg width="440" height="160" viewBox="0 0 440 160" fill="none" xmlns="http://www.w3.org/2000/svg">
<rect width="440" height="160" fill="white"/>
<g clip-path="url(#clip0_90_422)">
<mask id="mask0_90_422" style="mask-type:luminance" maskUnits="userSpaceOnUse" x="152" y="52" width="56" height="56">
<path d="M208 52H152V108H208V52Z" fill="white"/>
</mask>
<g mask="url(#mask0_90_422)">
<path d="M208 80C208 64.536 195.464 52 180 52C164.536 52 152 64.536 152 80C152 95.464 164.536 108 180 108C195.464 108 208 95.464 208 80Z" fill="#0098EA"/>
<path d="M179.927 74.4697C179.972 74.4471 179.994 74.4467 180 74.4467C180.006 74.4467 180.028 74.4471 180.073 74.4697C180.122 74.494 180.198 74.5445 180.295 74.6447C180.495 74.8514 180.724 75.2086 180.938 75.7442C181.149 76.2723 181.325 76.9219 181.448 77.66C181.52 78.0958 181.572 78.5524 181.602 79.02H178.398C178.428 78.5524 178.48 78.0958 178.552 77.66C178.675 76.9219 178.851 76.2723 179.062 75.7442C179.276 75.2085 179.505 74.8514 179.705 74.6447C179.802 74.5445 179.878 74.494 179.927 74.4697Z" fill="white"/>
<path d="M176.435 79.02C176.467 78.4464 176.529 77.8819 176.619 77.3396C176.745 76.578 176.927 75.8619 177.161 75.2272C176.766 75.4624 176.4 75.7463 176.073 76.0732C175.558 76.5889 175.148 77.2011 174.869 77.8749C174.716 78.2442 174.604 78.6283 174.534 79.02H176.435Z" fill="white"/>
<path d="M174.534 80.98H176.435C176.467 81.5536 176.529 82.1181 176.619 82.6604C176.745 83.422 176.927 84.138 177.161 84.7729C176.766 84.5377 176.4 84.2536 176.073 83.9268C175.558 83.4112 175.148 82.7989 174.869 82.1251C174.716 81.7557 174.604 81.3717 174.534 80.98Z" fill="white"/>
<path d="M185.466 79.02C185.396 78.6283 185.284 78.2442 185.131 77.8749C184.852 77.2011 184.443 76.5889 183.927 76.0732C183.6 75.7463 183.234 75.4624 182.839 75.2272C183.073 75.8619 183.255 76.578 183.381 77.3396C183.471 77.8819 183.533 78.4464 183.566 79.02H185.466Z" fill="white"/>
<path d="M183.566 80.98H185.466C185.396 81.3717 185.284 81.7557 185.131 82.1251C184.852 82.7989 184.443 83.4112 183.927 83.9268C183.6 84.2536 183.234 84.5377 182.839 84.7729C183.073 84.138 183.255 83.422 183.381 82.6604C183.471 82.1181 183.533 81.5536 183.566 80.98Z" fill="white"/>
<path d="M181.602 80.98C181.572 81.4476 181.52 81.9042 181.448 82.3399C181.325 83.0781 181.149 83.7278 180.938 84.2558C180.724 84.7914 180.495 85.1486 180.295 85.3552C180.198 85.4554 180.122 85.506 180.073 85.5303C180.028 85.5529 180.006 85.5533 180 85.5533C179.994 85.5533 179.972 85.5529 179.927 85.5303C179.878 85.506 179.802 85.4554 179.705 85.3552C179.505 85.1486 179.276 84.7914 179.062 84.2558C178.851 83.7278 178.675 83.0781 178.552 82.3399C178.48 81.9042 178.428 81.4476 178.398 80.98H181.602Z" fill="white"/>
<path fill-rule="evenodd" clip-rule="evenodd" d="M168.733 70.961C168.24 71.6638 168.24 73.7529 168.24 77.9312V79.9888C168.24 87.3558 173.779 90.9309 177.254 92.449C178.197 92.8607 178.668 93.0667 180 93.0667C181.332 93.0667 181.803 92.8607 182.746 92.449C186.221 90.9309 191.76 87.3558 191.76 79.9888V77.9312C191.76 73.7529 191.76 71.6638 191.267 70.961C190.773 70.2582 188.809 69.5858 184.881 68.2411L184.132 67.9849C182.084 67.2839 181.06 66.9333 180 66.9333C178.94 66.9333 177.916 67.2839 175.868 67.9849L175.119 68.2411C171.191 69.5858 169.227 70.2582 168.733 70.961ZM172.487 80C172.487 79.0133 172.681 78.0364 173.059 77.1248C173.436 76.2132 173.99 75.385 174.687 74.6873C175.385 73.9896 176.213 73.4362 177.125 73.0586C178.036 72.681 179.013 72.4867 180 72.4867C180.987 72.4867 181.964 72.681 182.875 73.0586C183.787 73.4362 184.615 73.9896 185.313 74.6873C186.01 75.385 186.564 76.2132 186.941 77.1248C187.319 78.0364 187.513 79.0133 187.513 80C187.513 80.9867 187.319 81.9637 186.941 82.8752C186.564 83.7869 186.01 84.615 185.313 85.3128C184.615 86.0104 183.787 86.5638 182.875 86.9414C181.964 87.319 180.987 87.5133 180 87.5133C179.013 87.5133 178.036 87.319 177.125 86.9414C176.213 86.5638 175.385 86.0104 174.687 85.3128C173.99 84.615 173.436 83.7869 173.059 82.8752C172.681 81.9637 172.487 80.9867 172.487 80Z" fill="white"/>
</g>
</g>
<path d="M226.227 68.2273L231.852 85.9091H232.068L237.705 68.2273H243.159L235.136 91.5H228.795L220.761 68.2273H226.227ZM245.96 91.5V68.2273H255.142C256.907 68.2273 258.411 68.5644 259.653 69.2386C260.896 69.9053 261.843 70.8333 262.494 72.0227C263.153 73.2045 263.483 74.5682 263.483 76.1136C263.483 77.6591 263.15 79.0227 262.483 80.2045C261.816 81.3864 260.85 82.3068 259.585 82.9659C258.328 83.625 256.805 83.9545 255.017 83.9545H249.165V80.0114H254.222C255.169 80.0114 255.949 79.8485 256.562 79.5227C257.184 79.1894 257.646 78.7311 257.949 78.1477C258.259 77.5568 258.415 76.8788 258.415 76.1136C258.415 75.3409 258.259 74.6667 257.949 74.0909C257.646 73.5076 257.184 73.0568 256.562 72.7386C255.941 72.4129 255.153 72.25 254.199 72.25H250.881V91.5H245.96ZM286.145 68.2273V91.5H281.895L271.77 76.8523H271.599V91.5H266.679V68.2273H270.997L281.043 82.8636H281.247V68.2273H286.145Z" fill="black"/>
<defs>
<clipPath id="clip0_90_422">
<rect width="56" height="56" fill="white" transform="translate(152 52)"/>
</clipPath>
</defs>
</svg>
