<svg width="440" height="160" viewBox="0 0 440 160" fill="none" xmlns="http://www.w3.org/2000/svg">
<rect width="440" height="160" fill="white"/>
<g clip-path="url(#clip0_90_389)">
<mask id="mask0_90_389" style="mask-type:luminance" maskUnits="userSpaceOnUse" x="130" y="52" width="57" height="56">
<path d="M186.5 52H130.5V108H186.5V52Z" fill="white"/>
</mask>
<g mask="url(#mask0_90_389)">
<path d="M186.5 80C186.5 64.536 173.964 52 158.5 52C143.036 52 130.5 64.536 130.5 80C130.5 95.464 143.036 108 158.5 108C173.964 108 186.5 95.464 186.5 80Z" fill="#0098EA"/>
<path d="M171.056 82.0405L171.355 78.8584C171.59 76.3592 171.708 75.1096 171.28 74.5931C171.049 74.3137 170.735 74.1425 170.398 74.1129C169.777 74.0583 168.996 74.947 167.435 76.7243C166.628 77.6434 166.224 78.103 165.774 78.1742C165.524 78.2135 165.27 78.173 165.039 78.0571C164.624 77.8478 164.346 77.2797 163.792 76.1434L160.869 70.1541C159.821 68.0069 159.297 66.9333 158.5 66.9333C157.703 66.9333 157.179 68.0069 156.131 70.1541L153.208 76.1434C152.654 77.2797 152.376 77.8478 151.96 78.0571C151.73 78.173 151.476 78.2135 151.226 78.1742C150.776 78.103 150.372 77.6434 149.565 76.7243C148.004 74.947 147.223 74.0583 146.601 74.1129C146.265 74.1425 145.951 74.3137 145.719 74.5931C145.292 75.1096 145.41 76.3592 145.645 78.8584L145.944 82.0405C146.438 87.2836 146.684 89.9052 148.23 91.4859C149.775 93.0666 152.091 93.0666 156.723 93.0666H160.277C164.909 93.0666 167.225 93.0666 168.77 91.4859C170.316 89.9052 170.562 87.2836 171.056 82.0405Z" fill="white"/>
</g>
</g>
<path d="M200.523 91.5V68.2273H205.443V77.8295H215.432V68.2273H220.341V91.5H215.432V81.8864H205.443V91.5H200.523ZM232.261 91.8409C230.466 91.8409 228.92 91.4773 227.625 90.75C226.337 90.0152 225.345 88.9773 224.648 87.6364C223.951 86.2879 223.602 84.6932 223.602 82.8523C223.602 81.0568 223.951 79.4811 224.648 78.125C225.345 76.7689 226.326 75.7121 227.591 74.9545C228.864 74.197 230.356 73.8182 232.068 73.8182C233.22 73.8182 234.292 74.0038 235.284 74.375C236.284 74.7386 237.155 75.2879 237.898 76.0227C238.648 76.7576 239.231 77.6818 239.648 78.7955C240.064 79.9015 240.273 81.197 240.273 82.6818V84.0114H225.534V81.0114H235.716C235.716 80.3144 235.564 79.697 235.261 79.1591C234.958 78.6212 234.538 78.2008 234 77.8977C233.47 77.5871 232.852 77.4318 232.148 77.4318C231.413 77.4318 230.761 77.6023 230.193 77.9432C229.633 78.2765 229.193 78.7273 228.875 79.2955C228.557 79.8561 228.394 80.4811 228.386 81.1705V84.0227C228.386 84.8864 228.545 85.6326 228.864 86.2614C229.189 86.8902 229.648 87.375 230.239 87.7159C230.83 88.0568 231.53 88.2273 232.341 88.2273C232.879 88.2273 233.371 88.1515 233.818 88C234.265 87.8485 234.648 87.6212 234.966 87.3182C235.284 87.0152 235.527 86.6439 235.693 86.2045L240.17 86.5C239.943 87.5758 239.477 88.5152 238.773 89.3182C238.076 90.1136 237.174 90.7348 236.068 91.1818C234.97 91.6212 233.701 91.8409 232.261 91.8409ZM243.432 91.5V74.0455H248.125V77.0909H248.307C248.625 76.0076 249.159 75.1894 249.909 74.6364C250.659 74.0758 251.523 73.7955 252.5 73.7955C252.742 73.7955 253.004 73.8106 253.284 73.8409C253.564 73.8712 253.811 73.9129 254.023 73.9659V78.2614C253.795 78.1932 253.481 78.1326 253.08 78.0795C252.678 78.0265 252.311 78 251.977 78C251.265 78 250.629 78.1553 250.068 78.4659C249.515 78.7689 249.076 79.1932 248.75 79.7386C248.432 80.2841 248.273 80.9129 248.273 81.625V91.5H243.432ZM263.599 91.8409C261.834 91.8409 260.308 91.4659 259.02 90.7159C257.74 89.9583 256.751 88.9053 256.054 87.5568C255.357 86.2008 255.009 84.6288 255.009 82.8409C255.009 81.0379 255.357 79.4621 256.054 78.1136C256.751 76.7576 257.74 75.7045 259.02 74.9545C260.308 74.197 261.834 73.8182 263.599 73.8182C265.365 73.8182 266.887 74.197 268.168 74.9545C269.455 75.7045 270.448 76.7576 271.145 78.1136C271.842 79.4621 272.19 81.0379 272.19 82.8409C272.19 84.6288 271.842 86.2008 271.145 87.5568C270.448 88.9053 269.455 89.9583 268.168 90.7159C266.887 91.4659 265.365 91.8409 263.599 91.8409ZM263.622 88.0909C264.425 88.0909 265.096 87.8636 265.634 87.4091C266.171 86.947 266.577 86.3182 266.849 85.5227C267.13 84.7273 267.27 83.822 267.27 82.8068C267.27 81.7917 267.13 80.8864 266.849 80.0909C266.577 79.2955 266.171 78.6667 265.634 78.2045C265.096 77.7424 264.425 77.5114 263.622 77.5114C262.812 77.5114 262.13 77.7424 261.577 78.2045C261.031 78.6667 260.618 79.2955 260.338 80.0909C260.065 80.8864 259.929 81.7917 259.929 82.8068C259.929 83.822 260.065 84.7273 260.338 85.5227C260.618 86.3182 261.031 86.947 261.577 87.4091C262.13 87.8636 262.812 88.0909 263.622 88.0909ZM283.293 91.8409C281.497 91.8409 279.952 91.4773 278.656 90.75C277.368 90.0152 276.376 88.9773 275.679 87.6364C274.982 86.2879 274.634 84.6932 274.634 82.8523C274.634 81.0568 274.982 79.4811 275.679 78.125C276.376 76.7689 277.357 75.7121 278.622 74.9545C279.895 74.197 281.387 73.8182 283.099 73.8182C284.251 73.8182 285.323 74.0038 286.315 74.375C287.315 74.7386 288.187 75.2879 288.929 76.0227C289.679 76.7576 290.262 77.6818 290.679 78.7955C291.096 79.9015 291.304 81.197 291.304 82.6818V84.0114H276.565V81.0114H286.747C286.747 80.3144 286.596 79.697 286.293 79.1591C285.99 78.6212 285.569 78.2008 285.031 77.8977C284.501 77.5871 283.884 77.4318 283.179 77.4318C282.444 77.4318 281.793 77.6023 281.224 77.9432C280.664 78.2765 280.224 78.7273 279.906 79.2955C279.588 79.8561 279.425 80.4811 279.418 81.1705V84.0227C279.418 84.8864 279.577 85.6326 279.895 86.2614C280.221 86.8902 280.679 87.375 281.27 87.7159C281.861 88.0568 282.562 88.2273 283.372 88.2273C283.91 88.2273 284.402 88.1515 284.849 88C285.296 87.8485 285.679 87.6212 285.997 87.3182C286.315 87.0152 286.558 86.6439 286.724 86.2045L291.202 86.5C290.974 87.5758 290.509 88.5152 289.804 89.3182C289.107 90.1136 288.205 90.7348 287.099 91.1818C286.001 91.6212 284.732 91.8409 283.293 91.8409ZM308.986 79.0227L304.554 79.2955C304.478 78.9167 304.315 78.5758 304.065 78.2727C303.815 77.9621 303.486 77.7159 303.077 77.5341C302.675 77.3447 302.194 77.25 301.634 77.25C300.884 77.25 300.251 77.4091 299.736 77.7273C299.221 78.0379 298.963 78.4545 298.963 78.9773C298.963 79.3939 299.13 79.7462 299.463 80.0341C299.796 80.322 300.368 80.553 301.179 80.7273L304.338 81.3636C306.035 81.7121 307.3 82.2727 308.134 83.0455C308.967 83.8182 309.384 84.8333 309.384 86.0909C309.384 87.2348 309.046 88.2386 308.372 89.1023C307.705 89.9659 306.789 90.6402 305.622 91.125C304.463 91.6023 303.126 91.8409 301.611 91.8409C299.3 91.8409 297.459 91.3598 296.088 90.3977C294.724 89.428 293.925 88.1098 293.69 86.4432L298.452 86.1932C298.596 86.8977 298.944 87.4356 299.497 87.8068C300.05 88.1705 300.759 88.3523 301.622 88.3523C302.471 88.3523 303.152 88.1894 303.668 87.8636C304.19 87.5303 304.455 87.1023 304.463 86.5795C304.455 86.1402 304.27 85.7803 303.906 85.5C303.543 85.2121 302.982 84.9924 302.224 84.8409L299.202 84.2386C297.497 83.8977 296.228 83.3068 295.395 82.4659C294.569 81.625 294.156 80.553 294.156 79.25C294.156 78.1288 294.459 77.1629 295.065 76.3523C295.679 75.5417 296.539 74.9167 297.645 74.4773C298.759 74.0379 300.062 73.8182 301.554 73.8182C303.759 73.8182 305.493 74.2841 306.759 75.2159C308.031 76.1477 308.774 77.4167 308.986 79.0227Z" fill="black"/>
<defs>
<clipPath id="clip0_90_389">
<rect width="56" height="56" fill="white" transform="translate(130.5 52)"/>
</clipPath>
</defs>
</svg>
