<svg width="292" height="217" viewBox="0 0 292 217" fill="none" xmlns="http://www.w3.org/2000/svg">
    <rect x="37.3751" y="7.14062" width="209.199" height="209.199" rx="104.599" transform="rotate(-1.7484 37.3751 7.14062)" fill="#F6F4EE"/>
    <ellipse cx="221.47" cy="173.34" rx="57.3803" ry="15.2416" fill="#000" fill-opacity="0.3"/>
    <g clip-path="url(#clip0_33_499)">
        <path d="M238.454 124.215C245.468 132.497 242.621 149.205 240.513 168.013C240.49 168.223 240.633 168.417 240.841 168.455L251.458 170.404" stroke="black" stroke-width="6.05105" stroke-linecap="round"/>
        <path d="M204.865 124.215C197.861 132.487 202.665 154.328 202.74 169.248C202.741 169.451 202.591 169.618 202.391 169.644L190.545 171.211" stroke="black" stroke-width="6.05105" stroke-linecap="round"/>
        <path d="M282.923 93.96C282.923 75.2454 267.752 60.0742 249.038 60.0742H195.789C177.074 60.0742 161.903 75.2453 161.903 93.96V95.5735C161.903 114.288 177.074 129.459 195.789 129.459H249.038C267.752 129.459 282.923 114.288 282.923 95.5735V93.96Z" fill="#FF713D"/>
        <path d="M223.422 83.068C219.634 83.068 216.564 79.6365 216.564 75.4034C216.564 71.1703 219.634 67.7388 223.422 67.7388C227.209 67.7388 230.28 71.1703 230.28 75.4034C230.28 79.6365 227.209 83.068 223.422 83.068Z" fill="black"/>
        <path d="M199.621 75.4035C195.789 75.4035 190.343 75.4035 181.871 75.4035" stroke="black" stroke-width="6.05105" stroke-linecap="round"/>
        <path d="M227.254 90.3293C221.808 96.1787 221.002 96.5821 208.294 97.1872" stroke="black" stroke-width="6.05105" stroke-linecap="round"/>
        <path d="M166.139 83.6731C158.474 89.3208 134.673 83.6731 140.926 69.9575" stroke="black" stroke-width="6.05105" stroke-linecap="round"/>
        <path d="M277.679 83.6732C293.412 81.0511 292.605 106.264 273.443 109.693" stroke="black" stroke-width="6.05105" stroke-linecap="round"/>
        <path d="M238.751 92.7498C236.078 92.7498 233.91 90.5825 233.91 87.9089C233.91 85.2354 236.078 83.0681 238.751 83.0681C241.425 83.0681 243.592 85.2354 243.592 87.9089C243.592 90.5825 241.425 92.7498 238.751 92.7498Z" fill="#FF8052"/>
        <path d="M177.03 92.7498C174.357 92.7498 172.19 90.5825 172.19 87.9089C172.19 85.2354 174.357 83.0681 177.03 83.0681C179.704 83.0681 181.871 85.2354 181.871 87.9089C181.871 90.5825 179.704 92.7498 177.03 92.7498Z" fill="#FF8052"/>
        <path d="M121.246 57.7176C120.822 57.6488 120.598 58.203 120.952 58.4476L124.936 61.203C125.148 61.3502 125.443 61.2619 125.539 61.022L126.337 59.0418C126.434 58.8019 126.283 58.5343 126.027 58.4929L121.246 57.7176Z" fill="#C8C8C8"/>
        <path d="M163.274 75.2889L151.46 70.5299C151.178 70.4164 151.118 70.0442 151.35 69.8479L155.872 66.0159C155.986 65.9191 156.145 65.8936 156.284 65.9495L162.606 68.4962C162.737 68.5491 162.831 68.6668 162.853 68.8065L163.823 74.8508C163.873 75.1607 163.565 75.4061 163.274 75.2889Z" fill="#FFCD6C"/>
        <path d="M163.249 75.279L151.481 70.5383C151.194 70.4229 150.89 70.659 150.93 70.9652L151.656 76.4764C151.675 76.6207 151.77 76.7436 151.905 76.7979L158.242 79.3506C158.369 79.4019 158.514 79.385 158.626 79.306L163.331 75.9827C163.592 75.7984 163.546 75.3983 163.249 75.279Z" fill="#FFCD6C"/>
        <path d="M161.379 73.7664L163.55 75.3629C163.871 75.5983 163.693 76.1062 163.296 76.091L160.503 75.984C160.457 75.9822 160.411 75.9724 160.368 75.9551L152.088 72.6199C152.028 72.5955 151.975 72.557 151.932 72.5076L150.604 70.9515C150.377 70.686 150.572 70.2773 150.921 70.2863L152.828 70.3359C152.876 70.3371 152.924 70.3469 152.969 70.3649L161.29 73.7172C161.322 73.7298 161.351 73.7464 161.379 73.7664Z" fill="#DAAF5A"/>
        <path d="M126.523 58.3103L151.967 68.5599C152.174 68.6431 152.274 68.8782 152.191 69.0848L151.136 71.7041C151.053 71.9108 150.818 72.0108 150.611 71.9276L125.166 61.678C124.96 61.5948 124.86 61.3598 124.943 61.1531L125.998 58.5338C126.081 58.3271 126.316 58.2271 126.523 58.3103Z" fill="#343433"/>
    </g>
    <ellipse cx="33.49" cy="87.27" rx="23.0119" ry="4.48283" fill="#000" fill-opacity="0.3"/>
    <g clip-path="url(#clip1_33_499)">
        <path d="M42.2227 61.2442C42.829 63.8256 43.009 68.5781 40.2311 70.9723C39.5128 71.5915 38.5965 72.0529 37.4389 72.2781C37.3317 72.2991 37.2784 72.4224 37.3394 72.5129L39.8281 76.2105" stroke="black" stroke-width="2.24495" stroke-linecap="round"/>
        <path d="M26.2864 61.2442C26.8925 63.8256 27.0726 68.5781 24.2947 70.9723C23.5763 71.5915 22.6602 72.0529 21.5024 72.2781C21.3954 72.2991 21.342 72.4224 21.4031 72.5129L23.8918 76.2105" stroke="black" stroke-width="2.24495" stroke-linecap="round"/>
        <path d="M53.5223 49.7949C55.9668 52.5637 61.2299 59.523 62.7266 65.2102" stroke="black" stroke-width="2.24495" stroke-linecap="round"/>
        <path d="M20.6713 18.4406H43.4201C49.5366 18.4406 54.4951 23.3991 54.4951 29.5157V52.2645C54.4951 58.381 49.5366 63.3395 43.4201 63.3395H20.6713C14.5547 63.3395 9.59622 58.381 9.59622 52.2645V29.5157C9.59622 23.3991 14.5547 18.4406 20.6713 18.4406Z" fill="#00C978"/>
        <path d="M27.2563 42.9853H46.7125V51.3664H27.2563V42.9853Z" fill="#00C978"/>
        <path d="M43.5696 51.3664C41.8338 51.3664 40.4267 49.4902 40.4267 47.1759C40.4267 44.8615 41.8338 42.9853 43.5696 42.9853C45.3054 42.9853 46.7125 44.8615 46.7125 47.1759C46.7125 49.4902 45.3054 51.3664 43.5696 51.3664Z" fill="#343433"/>
        <path d="M30.3993 51.3664C28.6635 51.3664 27.2564 49.4902 27.2564 47.1759C27.2564 44.8615 28.6635 42.9853 30.3993 42.9853C32.1351 42.9853 33.5422 44.8615 33.5422 47.1759C33.5422 49.4902 32.1351 51.3664 30.3993 51.3664Z" fill="#343433"/>
        <path d="M10.6438 49.7202C8.19935 52.4889 2.93615 59.4482 1.43952 65.1354" stroke="black" stroke-width="2.24495" stroke-linecap="round"/>
    </g>
    <circle cx="33.201" cy="21.0848" r="16.3798" fill="#FF6C6C"/>
    <circle cx="33.201" cy="21.0848" r="13.6498" fill="#F6F4EE"/>
    <circle cx="33.201" cy="21.0848" r="10.9199" fill="#FF6C6C"/>
    <circle cx="33.2009" cy="21.0848" r="8.18989" fill="#F6F4EE"/>
    <circle cx="33.2009" cy="21.0848" r="5.45993" fill="#FF6C6C"/>
    <defs>
        <clipPath id="clip0_33_499">
            <rect width="173.934" height="116.554" fill="white" transform="translate(118.066 57.6833)"/>
        </clipPath>
        <clipPath id="clip1_33_499">
            <rect width="63.6068" height="58.9672" fill="white" transform="matrix(-1 0 0 1 63.9238 18.4406)"/>
        </clipPath>
    </defs>
</svg>
