<svg width="172" height="257" viewBox="0 0 172 257" fill="none" xmlns="http://www.w3.org/2000/svg">
    <rect x="53" width="67" height="25" rx="12.5" fill="#00C978"/>
    <path d="M68.0825 13.172H70.1825V14.324H68.0825V16.436H66.9305V14.324H64.8185V13.172H66.9305V11.06H68.0825V13.172ZM72.9943 17V10.4L71.4703 11.06L70.9663 9.92L73.3783 8.792H74.3263V17H72.9943ZM78.3379 14.036C78.0259 14.036 77.7179 13.972 77.4139 13.844C77.1179 13.708 76.8499 13.524 76.6099 13.292C76.3779 13.052 76.1859 12.772 76.0339 12.452C75.8899 12.124 75.8179 11.764 75.8179 11.372C75.8179 10.988 75.8939 10.628 76.0459 10.292C76.2059 9.948 76.4139 9.652 76.6699 9.404C76.9339 9.156 77.2379 8.96 77.5819 8.816C77.9259 8.672 78.2899 8.6 78.6739 8.6C79.1059 8.6 79.4979 8.68 79.8499 8.84C80.2099 8.992 80.5139 9.2 80.7619 9.464C81.0179 9.72 81.2139 10.02 81.3499 10.364C81.4859 10.7 81.5539 11.048 81.5539 11.408C81.5539 11.928 81.4459 12.408 81.2299 12.848C81.0219 13.28 80.7619 13.724 80.4499 14.18L78.3859 17.216L77.3299 16.484L79.1899 13.892L79.1419 13.844C78.9259 13.972 78.6579 14.036 78.3379 14.036ZM78.6859 9.848C78.4779 9.848 78.2819 9.888 78.0979 9.968C77.9139 10.04 77.7499 10.144 77.6059 10.28C77.4699 10.408 77.3579 10.568 77.2699 10.76C77.1899 10.944 77.1499 11.144 77.1499 11.36C77.1499 11.576 77.1899 11.78 77.2699 11.972C77.3579 12.156 77.4699 12.316 77.6059 12.452C77.7499 12.588 77.9139 12.696 78.0979 12.776C78.2819 12.848 78.4779 12.884 78.6859 12.884C78.8859 12.884 79.0779 12.848 79.2619 12.776C79.4539 12.696 79.6219 12.588 79.7659 12.452C79.9099 12.316 80.0219 12.156 80.1019 11.972C80.1899 11.78 80.2339 11.576 80.2339 11.36C80.2339 11.144 80.1899 10.944 80.1019 10.76C80.0219 10.568 79.9099 10.408 79.7659 10.28C79.6299 10.144 79.4659 10.04 79.2739 9.968C79.0899 9.888 78.8939 9.848 78.6859 9.848ZM86.8735 17V9.704H84.4735V8.408H90.6295V9.704H88.2295V17H86.8735ZM95.4448 17.192C94.8048 17.192 94.2128 17.076 93.6688 16.844C93.1328 16.612 92.6648 16.296 92.2648 15.896C91.8648 15.488 91.5528 15.012 91.3288 14.468C91.1048 13.916 90.9928 13.328 90.9928 12.704C90.9928 12.08 91.1048 11.496 91.3288 10.952C91.5528 10.408 91.8648 9.932 92.2648 9.524C92.6648 9.116 93.1328 8.796 93.6688 8.564C94.2128 8.332 94.8048 8.216 95.4448 8.216C96.0768 8.216 96.6648 8.332 97.2088 8.564C97.7528 8.796 98.2248 9.116 98.6248 9.524C99.0248 9.932 99.3368 10.408 99.5608 10.952C99.7848 11.496 99.8968 12.08 99.8968 12.704C99.8968 13.328 99.7848 13.916 99.5608 14.468C99.3368 15.012 99.0248 15.488 98.6248 15.896C98.2248 16.296 97.7528 16.612 97.2088 16.844C96.6648 17.076 96.0768 17.192 95.4448 17.192ZM95.4448 15.896C95.8688 15.896 96.2688 15.82 96.6448 15.668C97.0208 15.516 97.3448 15.3 97.6168 15.02C97.8968 14.74 98.1168 14.404 98.2768 14.012C98.4368 13.62 98.5168 13.184 98.5168 12.704C98.5168 12.224 98.4368 11.788 98.2768 11.396C98.1168 11.004 97.8968 10.668 97.6168 10.388C97.3448 10.108 97.0208 9.892 96.6448 9.74C96.2688 9.588 95.8688 9.512 95.4448 9.512C95.0208 9.512 94.6208 9.588 94.2448 9.74C93.8688 9.892 93.5408 10.108 93.2608 10.388C92.9888 10.668 92.7728 11.004 92.6128 11.396C92.4528 11.788 92.3728 12.224 92.3728 12.704C92.3728 13.184 92.4528 13.62 92.6128 14.012C92.7728 14.404 92.9888 14.74 93.2608 15.02C93.5408 15.3 93.8688 15.516 94.2448 15.668C94.6208 15.82 95.0208 15.896 95.4448 15.896ZM101.21 8.408H102.83L106.646 14.636H106.718L106.646 12.98V8.408H107.99V17H106.574L102.566 10.46H102.494L102.566 12.116V17H101.21V8.408Z" fill="#F6F4EE"/>
    <rect x="45" y="37" width="83" height="32" rx="16" fill="#00C978"/>
    <path d="M62.1784 53.258H65.3284V54.986H62.1784V58.154H60.4504V54.986H57.2824V53.258H60.4504V50.09H62.1784V53.258ZM71.3151 59.288C70.8831 59.288 70.4451 59.222 70.0011 59.09C69.5571 58.958 69.1371 58.76 68.7411 58.496C68.3571 58.22 68.0151 57.872 67.7151 57.452C67.4151 57.032 67.1931 56.534 67.0491 55.958L68.8491 55.238C69.0051 55.874 69.2871 56.396 69.6951 56.804C70.1151 57.2 70.6491 57.398 71.2971 57.398C71.6211 57.398 71.9271 57.344 72.2151 57.236C72.5031 57.116 72.7491 56.96 72.9531 56.768C73.1571 56.564 73.3191 56.324 73.4391 56.048C73.5591 55.772 73.6191 55.466 73.6191 55.13C73.6191 54.794 73.5591 54.488 73.4391 54.212C73.3311 53.924 73.1751 53.678 72.9711 53.474C72.7671 53.27 72.5211 53.114 72.2331 53.006C71.9451 52.886 71.6331 52.826 71.2971 52.826C70.9011 52.826 70.5411 52.916 70.2171 53.096C69.8931 53.264 69.6231 53.486 69.4071 53.762L67.4271 52.88L68.1651 46.688H74.8791V48.506H69.8391L69.3891 51.71L69.4971 51.746C69.7611 51.542 70.0671 51.368 70.4151 51.224C70.7631 51.08 71.1891 51.008 71.6931 51.008C72.2091 51.008 72.7011 51.11 73.1691 51.314C73.6491 51.506 74.0691 51.782 74.4291 52.142C74.7891 52.502 75.0771 52.934 75.2931 53.438C75.5091 53.942 75.6171 54.5 75.6171 55.112C75.6171 55.712 75.5091 56.27 75.2931 56.786C75.0771 57.29 74.7771 57.728 74.3931 58.1C74.0091 58.472 73.5531 58.766 73.0251 58.982C72.5091 59.186 71.9391 59.288 71.3151 59.288ZM83.7556 59V48.056H80.1556V46.112H89.3896V48.056H85.7896V59H83.7556ZM96.6126 59.288C95.6526 59.288 94.7646 59.114 93.9486 58.766C93.1446 58.418 92.4426 57.944 91.8426 57.344C91.2426 56.732 90.7746 56.018 90.4386 55.202C90.1026 54.374 89.9346 53.492 89.9346 52.556C89.9346 51.62 90.1026 50.744 90.4386 49.928C90.7746 49.112 91.2426 48.398 91.8426 47.786C92.4426 47.174 93.1446 46.694 93.9486 46.346C94.7646 45.998 95.6526 45.824 96.6126 45.824C97.5606 45.824 98.4426 45.998 99.2586 46.346C100.075 46.694 100.783 47.174 101.383 47.786C101.983 48.398 102.451 49.112 102.787 49.928C103.123 50.744 103.291 51.62 103.291 52.556C103.291 53.492 103.123 54.374 102.787 55.202C102.451 56.018 101.983 56.732 101.383 57.344C100.783 57.944 100.075 58.418 99.2586 58.766C98.4426 59.114 97.5606 59.288 96.6126 59.288ZM96.6126 57.344C97.2486 57.344 97.8486 57.23 98.4126 57.002C98.9766 56.774 99.4626 56.45 99.8706 56.03C100.291 55.61 100.621 55.106 100.861 54.518C101.101 53.93 101.221 53.276 101.221 52.556C101.221 51.836 101.101 51.182 100.861 50.594C100.621 50.006 100.291 49.502 99.8706 49.082C99.4626 48.662 98.9766 48.338 98.4126 48.11C97.8486 47.882 97.2486 47.768 96.6126 47.768C95.9766 47.768 95.3766 47.882 94.8126 48.11C94.2486 48.338 93.7566 48.662 93.3366 49.082C92.9286 49.502 92.6046 50.006 92.3646 50.594C92.1246 51.182 92.0046 51.836 92.0046 52.556C92.0046 53.276 92.1246 53.93 92.3646 54.518C92.6046 55.106 92.9286 55.61 93.3366 56.03C93.7566 56.45 94.2486 56.774 94.8126 57.002C95.3766 57.23 95.9766 57.344 96.6126 57.344ZM105.26 46.112H107.69L113.414 55.454H113.522L113.414 52.97V46.112H115.43V59H113.306L107.294 49.19H107.186L107.294 51.674V59H105.26V46.112Z" fill="#F6F4EE"/>
    <rect x="17.5" y="81" width="138" height="46" rx="23" fill="#00C978"/>
    <path d="M40.34 105.43H45.59V108.31H40.34V113.59H37.46V108.31H32.18V105.43H37.46V100.15H40.34V105.43ZM52.6196 115V98.5L48.8096 100.15L47.5496 97.3L53.5796 94.48H55.9496V115H52.6196ZM60.6085 113.95L69.6385 97.75L69.5785 97.63H59.6785L59.7385 94.48H73.2985V97.81L63.4885 115.48L60.6085 113.95ZM86.6145 115V96.76H80.6145V93.52H96.0045V96.76H90.0045V115H86.6145ZM108.043 115.48C106.443 115.48 104.963 115.19 103.603 114.61C102.263 114.03 101.093 113.24 100.093 112.24C99.0927 111.22 98.3127 110.03 97.7527 108.67C97.1927 107.29 96.9127 105.82 96.9127 104.26C96.9127 102.7 97.1927 101.24 97.7527 99.88C98.3127 98.52 99.0927 97.33 100.093 96.31C101.093 95.29 102.263 94.49 103.603 93.91C104.963 93.33 106.443 93.04 108.043 93.04C109.623 93.04 111.093 93.33 112.453 93.91C113.813 94.49 114.993 95.29 115.993 96.31C116.993 97.33 117.773 98.52 118.333 99.88C118.893 101.24 119.173 102.7 119.173 104.26C119.173 105.82 118.893 107.29 118.333 108.67C117.773 110.03 116.993 111.22 115.993 112.24C114.993 113.24 113.813 114.03 112.453 114.61C111.093 115.19 109.623 115.48 108.043 115.48ZM108.043 112.24C109.103 112.24 110.103 112.05 111.043 111.67C111.983 111.29 112.793 110.75 113.473 110.05C114.173 109.35 114.723 108.51 115.123 107.53C115.523 106.55 115.723 105.46 115.723 104.26C115.723 103.06 115.523 101.97 115.123 100.99C114.723 100.01 114.173 99.17 113.473 98.47C112.793 97.77 111.983 97.23 111.043 96.85C110.103 96.47 109.103 96.28 108.043 96.28C106.983 96.28 105.983 96.47 105.043 96.85C104.103 97.23 103.283 97.77 102.583 98.47C101.903 99.17 101.363 100.01 100.963 100.99C100.563 101.97 100.363 103.06 100.363 104.26C100.363 105.46 100.563 106.55 100.963 107.53C101.363 108.51 101.903 109.35 102.583 110.05C103.283 110.75 104.103 111.29 105.043 111.67C105.983 112.05 106.983 112.24 108.043 112.24ZM122.455 93.52H126.505L136.045 109.09H136.225L136.045 104.95V93.52H139.405V115H135.865L125.845 98.65H125.665L125.845 102.79V115H122.455V93.52Z" fill="#F6F4EE"/>
    <path d="M77.3113 113.24C80.0113 104.775 91.9887 104.775 94.6887 113.24L105.246 146.337C106.143 149.152 108.348 151.357 111.163 152.254L144.26 162.811C152.725 165.511 152.725 177.489 144.26 180.189L111.163 190.746C108.348 191.643 106.143 193.848 105.246 196.663L94.6887 229.76C91.9887 238.225 80.0113 238.225 77.3113 229.76L66.7545 196.663C65.8568 193.848 63.6515 191.643 60.8372 190.746L27.7402 180.189C19.2754 177.489 19.2754 165.511 27.7402 162.811L60.8372 152.254C63.6515 151.357 65.8568 149.152 66.7545 146.337L77.3113 113.24Z" fill="#FFCD6C"/>
</svg>
